<svg xmlns="http://www.w3.org/2000/svg" version="1.0" viewBox="0 0 800 800"><rect width="750" height="750" x="25" y="25" fill="#5aa620" rx="100"/><path fill="#5aa620" stroke="#000" stroke-width="10" d="M371 474h60M371 174h60"/><path fill="#5aa620" stroke="#000" stroke-width="11" d="M371 249h60M371 324h60"/><path fill="#5aa620" stroke="#000" stroke-width="10" d="M326 369v60M476 369v60M626 369v60M551 369v60"/><path fill="#5aa620" stroke="#000" stroke-width="20" d="M401 119v560"/><path fill="#5aa620" stroke="#000" stroke-width="10" d="M371 549h60M251 369v60"/><path fill="#5aa620" stroke="#000" stroke-width="20" d="M106 399h575"/><path fill="#5aa620" stroke="#000" stroke-width="10" d="M371 624h60M176 369v60"/><path fill="none" stroke="#fff" stroke-linecap="round" stroke-linejoin="round" stroke-width="20" d="m140 660 520-520"/><ellipse cx="377" cy="642.5" fill="#5aa620" rx="81" ry="87.5"/><g stroke="null"><g fill="#d2fd78"><path d="M634.872 593.67c-24.97 0-45.16 20.288-45.16 45.16 0 5.95 4.877 10.827 10.827 10.827s10.827-4.877 10.827-10.827c0-12.973 10.631-23.604 23.604-23.604 5.95 0 10.827-4.877 10.827-10.827-.098-5.95-4.975-10.73-10.925-10.73z"/><path d="M708.514 562.555c-2.633-2.536-5.462-4.975-8.388-7.316l-39.991-33.943c-15.411-10.925-33.748-17.85-53.646-19.216l2.145 2.146-24.287-24.384h-.195a38.071 38.071 0 0 0-25.653-9.95c-16.971 0-31.31 11.022-36.187 26.336-4.877-3.121-10.534-4.974-16.679-5.365-.975-.097-2.048-.097-3.023-.097-6.926 0-13.363 2.048-18.825 5.462-4.975-15.216-19.313-26.238-36.187-26.238-9.852 0-18.825 3.707-25.653 9.95h-.195l-24.287 24.384 2.145-2.146c-19.898 1.366-38.332 8.388-53.646 19.215l-39.991 33.944c-2.926 2.243-5.755 4.682-8.388 7.315-19.996 19.313-32.383 46.331-32.383 76.276 0 58.523 47.599 106.122 106.122 106.122 54.037 0 98.807-40.674 105.245-93.052 7.803 4.487 16.874 7.023 26.433 7.023 9.656 0 18.63-2.536 26.433-7.023 6.535 52.28 51.208 92.954 105.244 92.954 58.524 0 106.123-47.599 106.123-106.122.097-29.944-12.29-56.963-32.286-76.275zM371.322 711.302c-39.99 0-72.374-32.383-72.374-72.374 0-39.991 32.383-72.374 72.374-72.374 39.991 0 72.374 32.383 72.374 72.374.098 39.893-32.383 72.374-72.374 72.374zm131.775-82.323c-12.972 0-23.507-10.535-23.507-23.507 0-12.973 10.535-23.507 23.507-23.507 12.973 0 23.507 10.534 23.507 23.507 0 12.972-10.534 23.507-23.507 23.507zm131.775 82.323c-39.99 0-72.374-32.383-72.374-72.374 0-39.991 32.383-72.374 72.374-72.374 39.991 0 72.374 32.383 72.374 72.374 0 39.893-32.383 72.374-72.374 72.374z"/><path d="M371.322 593.67c-24.97 0-45.16 20.288-45.16 45.16 0 5.95 4.877 10.827 10.826 10.827 5.95 0 10.827-4.877 10.827-10.827 0-12.973 10.632-23.604 23.605-23.604 5.95 0 10.826-4.877 10.826-10.827-.097-5.95-4.974-10.73-10.924-10.73z"/></g></g></svg>