<svg xmlns="http://www.w3.org/2000/svg" viewBox="0 0 800 800"><rect width="750" height="750" x="24" y="25" fill="#3d85e7" rx="100"/><path fill="#82bcfc" d="m186 644 23-76 150-194 301-220v485" opacity="NaN"/><path fill="#82bcfc" stroke="#fff" stroke-width="20" d="M183 640c18.048-129.732 98.736-229.527 169.868-307.366C424 254.794 566.264 168.97 665 155" opacity="NaN"/><path fill="none" stroke="#000" stroke-width="20" d="M105 640h575M160 120v560"/><path fill="none" stroke="#000" stroke-width="10" d="M130 540h60M130 440h60M133 140h60"/><path fill="none" stroke="#000" stroke-width="11" d="M130 240h60M130 340h60"/><path fill="none" stroke="#000" stroke-width="10" d="M260 670v-60M360 670v-60M460 670v-60M660 670v-60M560 670v-60"/></svg>