<?xml version="1.0"?><svg xmlns="http://www.w3.org/2000/svg" style="enable-background:new 0 0 800 800" viewBox="0 0 800 800"><rect height="750" rx="100" style="fill:#9439b5" width="750" x="24" y="25"/><path d="m67.53952 641.45038c15.00322-.12556 30.00311-.38329 44.99968-1.15649 14.34136-.74676 28.73261-1.96273 42.98085-5.52471 15.08637-3.78006 29.90333-10.05814 44.10501-21.47764 14.15178-11.38645 26.66056-28.64126 38.21813-48.83023 11.23495-19.61404 21.06637-43.70204 29.71376-68.22619 8.90016-25.22466 17.14844-51.39433 24.8047-78.3372 7.88908-27.75572 15.44557-55.89473 22.93554-84.11965 7.34363-27.66981 14.69723-55.29996 22.33354-82.61951 7.46336-26.71157 15.52871-53.2315 24.971-77.14767 4.89243-12.39094 10.28374-23.43375 16.31696-33.39938 5.87025-9.69468 12.95778-15.1533 20.37458-16.30979 7.52323-1.16971 14.66065 6.47633 20.72713 14.7634 6.20616 8.47871 11.37464 20.39384 16.16729 32.01159 9.88796 23.91618 17.84355 51.17625 25.62288 78.12573 7.53986 26.12342 14.50766 52.96055 21.58189 79.62586 7.45006 28.08614 14.89679 56.1855 22.75261 83.80905 7.61635 26.80409 15.59856 53.25132 24.45881 78.36364 9.08308 25.75995 19.03756 49.98672 30.46209 71.43132 11.23495 21.06791 24.06302 37.49004 37.97201 49.74221 13.3835 11.79618 28.07075 18.23286 42.46533 21.84111 14.79701 3.72059 29.64059 5.30663 44.53405 6.19878 14.72052.89215 29.45434 1.08379 44.1815 1.22257.75498 0 1.49334.01322 2.24167.01983" style="stroke-miterlimit:10;stroke-linejoin:round;stroke-linecap:round;stroke-width:.75;fill:#af86fc"/><path d="m93 76h309.99998v567.99999h-309.99998z" style="fill:#9439b5"/><g style="fill:none"><path d="m325 670v-60" style="stroke:#000000;stroke-width:10"/><path d="m475 670v-60" style="stroke:#000000;stroke-width:10"/><path d="m625 670v-60" style="stroke:#000000;stroke-width:10"/><path d="m550 670v-60" style="stroke:#000000;stroke-width:10"/><path d="m250 670v-60" style="stroke:#000000;stroke-width:10"/><path d="m105 640h575" style="stroke:#000000;stroke-width:20"/><path d="m368.5 440h60" style="stroke:#000000;stroke-width:10"/><path d="m370 140h60" style="stroke:#000000;stroke-width:10"/><path d="m368.5 240h60" style="stroke:#000000;stroke-width:11"/><path d="m368.5 340h60" style="stroke:#000000;stroke-width:11"/><path d="m398.5 120v560" style="stroke:#000000;stroke-width:20"/><path d="m368.5 540h60" style="stroke:#000000;stroke-width:10"/><path d="m175 610v60" style="stroke-width:10;stroke:#000000"/><path d="m67.53952 641.45038c15.00322-.12556 30.00312-.38329 44.99968-1.15648 14.34136-.74676 28.73261-1.96273 42.98085-5.52471 15.08637-3.78007 29.90333-10.05815 44.10501-21.47764 14.15178-11.38645 26.66056-28.64126 38.21813-48.83024 11.23495-19.61403 21.06637-43.70203 29.71376-68.22619 8.90015-25.22466 17.14843-51.39433 24.8047-78.3372 7.88908-27.75572 15.44556-55.89473 22.93553-84.11965 7.34363-27.6698 14.69724-55.29996 22.33355-82.61951 7.46336-26.71158 15.52871-53.2315 24.97099-77.14768 4.89243-12.39094 10.28374-23.43375 16.31696-33.39937 5.87025-9.69468 12.95778-15.1533 20.37458-16.30979 7.52323-1.16971 14.66065 6.47633 20.72712 14.7634 6.20617 8.47871 11.37465 20.39384 16.16729 32.01159 9.88796 23.91617 17.84356 51.17625 25.62288 78.12573 7.53986 26.12342 14.50766 52.96055 21.58189 79.62586 7.45006 28.08614 14.89679 56.1855 22.75261 83.80905 7.61635 26.80409 15.59856 53.25132 24.4588 78.36364 9.08309 25.75994 19.03756 49.98672 30.46209 71.43131 11.23496 21.06791 24.06302 37.49005 37.97202 49.74221 13.38349 11.79618 28.07075 18.23286 42.46533 21.84111 14.79701 3.72058 29.64058 5.30663 44.53405 6.19877 14.72051.89215 29.45433 1.0838 44.1815 1.22258.75498 0 1.49334.01321 2.24167.01982" style="stroke-width:25;stroke:#ffffff;stroke-miterlimit:10;stroke-linejoin:round;stroke-linecap:round"/></g></svg>