<svg xmlns="http://www.w3.org/2000/svg" xmlns:xlink="http://www.w3.org/1999/xlink" viewBox="0 0 800 800"><rect width="750" height="750" x="24" y="25" fill="#ae3314" rx="100"/><ellipse cx="311" cy="151" stroke="null" rx="42" ry="37"/><ellipse cx="495" cy="649" stroke="null" rx="42" ry="37"/><path fill="url(#a)" stroke="null" d="M402.399 730.978c168.925 0 158.376-73.256 158.376-73.256l-.188-75.893H399.386v-22.786h225.23S732.71 571.302 732.71 400.854c0-170.447-94.348-164.402-94.348-164.402h-56.308v79.094s3.035 94.348-92.841 94.348H329.33s-89.828-1.452-89.828 86.815v145.947s-13.639 88.322 162.896 88.322zm88.886-51.034c-16.038 0-29-12.963-29-29.002 0-16.038 12.962-29 29-29 16.039 0 29.002 12.962 29.002 29 0 16.039-12.963 29.002-29.002 29.002z"/><path fill="#f1998f" stroke="null" d="M397.601 69.022c-168.925 0-158.376 73.256-158.376 73.256l.188 75.893h161.201v22.786h-225.23S67.29 228.698 67.29 399.145c0 170.448 94.348 164.403 94.348 164.403h56.308v-79.094s-3.035-94.348 92.841-94.348H470.67s89.828 1.452 89.828-86.815V157.344s13.639-88.322-162.896-88.322zm-88.886 51.034c16.038 0 29 12.963 29 29.002 0 16.038-12.962 29-29 29-16.039 0-29.002-12.962-29.002-29 0-16.039 12.963-29.002 29.002-29.002z"/><defs><linearGradient id="b"><stop offset="0" stop-color="#fff"/><stop offset="1" stop-color="#fff"/></linearGradient><linearGradient xlink:href="#b" id="a" x1=".191" x2=".907" y1=".203" y2=".888"/></defs></svg>