<svg xmlns="http://www.w3.org/2000/svg" xml:space="preserve" viewBox="0 0 800 800"><rect width="750" height="750" x="25" y="25" fill="#9439b5" rx="100"/><path fill="none" stroke="#000" stroke-width="20" d="M105 640h575"/><path fill="none" stroke="#000" stroke-width="10" d="M130 540h60M130 440h60M133 140h60"/><path fill="none" stroke="#000" stroke-width="11" d="M130 240h60M130 340h60"/><path fill="none" stroke="#000" stroke-width="10" d="M260 670v-60M360 670v-60M460 670v-60M660 670v-60M560 670v-60"/><path fill="none" stroke="#fff" stroke-width="16" d="m157 264 139 111 86-121 94 69 93-179 109 94" opacity="NaN"/><ellipse cx="294.5" cy="375.5" fill="#fff" rx="25" ry="24.5"/><ellipse cx="380.5" cy="260.5" fill="#fff" rx="25" ry="24.5"/><ellipse cx="473.5" cy="320.5" fill="#fff" rx="25" ry="24.5"/><ellipse cx="569.5" cy="140.5" fill="#fff" rx="25" ry="24.5"/><ellipse cx="675.5" cy="238.5" fill="#fff" rx="25" ry="24.5"/><path fill="none" stroke="#af86fc" stroke-width="20" d="m160 510 115 61 104-142 103 115 91-229 100 122" opacity="NaN"/><ellipse cx="273.5" cy="567.5" fill="#af86fc" rx="25" ry="24.5"/><ellipse cx="374.5" cy="434.5" fill="#af86fc" rx="25" ry="24.5"/><ellipse cx="480.5" cy="536.5" fill="#af86fc" rx="25" ry="24.5"/><ellipse cx="571.5" cy="318.5" fill="#af86fc" rx="25" ry="24.5"/><ellipse cx="674.5" cy="436.5" fill="#af86fc" rx="25" ry="24.5"/><path fill="none" stroke="#000" stroke-width="20" d="M160 120v560"/></svg>