<svg style="enable-background:new 0 0 800 800" viewBox="0 0 800 800" xmlns="http://www.w3.org/2000/svg"><path d="m124 25h550c55.23 0 100 44.77 100 100v550c0 55.23-44.77 100-100 100h-550c-55.23 0-100-44.77-100-100v-550c0-55.23 44.77-100 100-100z" style="fill:#f15b22"/><path d="m598.65 273.6 19.35-161.6-144.4 75.12c24.31 46.64 70.55 80.02 125.05 86.48z" style="fill:#ffce39"/><g style="fill:none;stroke-miterlimit:10"><path d="m111 375.75 507-263.75-71 593z" style="stroke:#000000;stroke-width:39"/><circle cx="362.91" cy="480.73" r="144.34" style="stroke:#ffffff;stroke-width:30"/><path d="m362.91 303.58v65.61" style="stroke:#ffffff;stroke-width:30"/><path d="m185.76 480.73h65.61" style="stroke:#ffffff;stroke-width:30"/><path d="m474.45 480.73h65.61" style="stroke:#ffffff;stroke-width:30"/><path d="m362.91 592.27v65.61" style="stroke:#ffffff;stroke-width:30"/><path d="m362.91 375.75v15.75" style="stroke:#ffffff;stroke-width:30"/><path d="m362.91 569.96v15.74" style="stroke:#ffffff;stroke-width:30"/><path d="m258.08 480.73h15.75" style="stroke:#ffffff;stroke-width:30"/><path d="m286.8 480.73h15.75" style="stroke:#ffffff;stroke-width:30"/><path d="m313.05 480.73h26.24" style="stroke:#ffffff;stroke-width:30"/><path d="m386.53 480.73h26.24" style="stroke:#ffffff;stroke-width:30"/><path d="m423.27 480.73h15.75" style="stroke:#ffffff;stroke-width:30"/><path d="m452.14 480.73h15.75" style="stroke:#ffffff;stroke-width:30"/><path d="m362.91 457.11v-26.25" style="stroke:#ffffff;stroke-width:30"/><path d="m362.91 420.36v-15.74" style="stroke:#ffffff;stroke-width:30"/><path d="m362.91 541.09v15.75" style="stroke:#ffffff;stroke-width:30"/><path d="m362.91 504.35v26.24" style="stroke:#ffffff;stroke-width:30"/><circle cx="362.91" cy="480.73" r="26.24" style="stroke:#ffffff;stroke-width:30"/></g></svg>