<svg style="enable-background:new 0 0 800 800" viewBox="0 0 800 800" xmlns="http://www.w3.org/2000/svg"><path d="m125 25h550c55.23 0 100 44.77 100 100v550c0 55.23-44.77 100-100 100h-550c-55.23 0-100-44.77-100-100v-550c0-55.23 44.77-100 100-100z" style="fill:#f15b22"/><path d="m187.13 123.72 95.12 171.41h-161.51z" style="fill:#fcb427"/><path d="m393.66 123.72 105.41 171.41-105.41 381.47-105.3-381.47" style="fill:#fcb427"/><path d="m602.28 123.72 73.33 171.41h-163.49" style="fill:#fcb427"/><path d="m1842.16 4021.2c-44.88-42.67-789.86-1826.27-789.86-1891.03 0-42.67 122.06-212.13 1382.9-1918.59 761.1-1028.83 1410.5-1906.2 1442.74-1948.87 92.1-121.18 150.81-123.98 238.34-6.91 29.96 39.94 679.36 917.31 1442.75 1950.25 1259.7 1703.72 1388.68 1882.75 1388.68 1924.12 0 64.76-744.99 1848.36-789.87 1891.03l-15.32 14.24c-10.15 9.44-23.49 14.68-37.34 14.68h-2105.18-2105.18c-13.86 0-27.2-5.25-37.34-14.68zm1904.52-269.98c0-20.65-845.15-1353.87-852.07-1344.23-14.98 19.28-748.42 1340.12-748.42 1346.96 0 4.1 360.4 6.91 800.27 6.91s800.22-4.1 800.22-9.64zm2107.13 2.73c0-6.91-733.5-1327.75-748.42-1346.96-6.92-9.64-852.07 1323.57-852.07 1344.23 0 5.54 360.4 9.64 800.27 9.64s800.22-2.73 800.22-6.91zm-1424.35-782.31 371.87-594.66c22.71-36.32-3.13-83.49-45.96-83.9l-328.19-3.16c-234.91-1.37-619.5-1.37-854.35 0l-328.19 3.16c-42.84.41-68.68 47.58-45.96 83.9l371.87 594.66c232.57 373.31 426.03 677.69 429.46 677.69s196.88-304.38 429.45-677.69zm-2130.17-30.3 319.53-572.68c20.39-36.55-6.03-81.55-47.88-81.55h-551.44-562.54c-39.14 0-65.67 39.82-50.61 75.94l241.2 578.29c150.81 359.5 277.51 654.23 280.93 654.23 3.49 0 170.49-294.73 370.81-654.23zm4053.1 0 241.2-578.29c15.07-36.12-11.47-75.94-50.61-75.94h-562.48-551.44c-41.85 0-68.28 45-47.88 81.55l319.53 572.68c200.32 359.5 367.32 654.23 370.75 654.23 3.42 0 130.12-294.73 280.93-654.23zm-3111.21-2451.57c239.49-824.99 434.09-1501.24 432.95-1502.6-3.1-3.77-1809.6 2438.98-2158.59 2917.62-26.05 35.73-1.3 85.95 42.9 87.06 114.2 2.86 317.79 4.2 571.57 3.33l636.11-3.85c24.29-.15 45.59-16.26 52.34-39.6zm1688.01 1491.6c-2.29-9.64-211.87-732.74-464.05-1604.57-252.18-873.2-461.77-1588.02-465.2-1588.02s-213.02 714.82-465.2 1588.02c-252.12 871.9-461.65 1594.92-465.14 1604.57-3.43 12.38 187.69 16.55 930.39 16.55 743.85 0 933.83-4.1 929.2-16.55zm1613.18 4.17c-3.78-11.36-1513.62-2055.75-2038.93-2761.82-36.42-48.95-113.52-10.78-96.68 47.86 209.86 730.7 756.7 2621.45 778.04 2689.21 7.55 22.24 28.43 37.2 51.92 37.2h635.44c380.07-.07 672.55-5.61 670.21-12.45z" style="fill:#7a1214" transform="matrix(.1 0 0 -.1 0 511)"/><g style="fill:none;stroke:#ffffff;stroke-width:30;stroke-miterlimit:10"><circle cx="542.12" cy="535.9" r="144.34" style=""/><path d="m542.12 358.75v65.61" style=""/><path d="m364.97 535.9h65.61" style=""/><path d="m653.66 535.9h65.61" style=""/><path d="m542.12 647.44v65.61" style=""/><path d="m542.12 430.92v15.75" style=""/><path d="m542.12 625.13v15.75" style=""/><path d="m437.29 535.9h15.75" style=""/><path d="m466.01 535.9h15.75" style=""/><path d="m492.26 535.9h26.24" style=""/><path d="m565.74 535.9h26.24" style=""/><path d="m602.48 535.9h15.75" style=""/><path d="m631.35 535.9h15.75" style=""/><path d="m542.12 512.28v-26.25" style=""/><path d="m542.12 475.54v-15.75" style=""/><path d="m542.12 596.26v15.75" style=""/><path d="m542.12 559.52v26.24" style=""/><circle cx="542.12" cy="535.9" r="26.24" style=""/></g></svg>