<svg style="enable-background:new 0 0 800 800" viewBox="0 0 800 800" xmlns="http://www.w3.org/2000/svg"><path d="m125 25h550c55.23 0 100 44.77 100 100v550c0 55.23-44.77 100-100 100h-550c-55.23 0-100-44.77-100-100v-550c0-55.23 44.77-100 100-100z" style="fill:#3d85e7"/><g style="stroke-miterlimit:10"><path d="m433 115.5 229 76.5v416l-229-76.5v-416l-301 104.5v416" style="fill:none;stroke:#000000;stroke-width:10"/><path d="m132 636 301-104.5 229 76.5-301 104.5z" style="fill:#52737b;stroke:#000000;stroke-width:10"/><path d="m105.1 272.33 53.8-18.68" style="fill:none;stroke:#000000;stroke-width:10"/><path d="m105.1 357.29 53.8-18.68" style="fill:none;stroke:#000000;stroke-width:10"/><path d="m105.1 442.26 53.8-18.68" style="fill:none;stroke:#000000;stroke-width:10"/><path d="m105.1 527.22 53.8-18.68" style="fill:none;stroke:#000000;stroke-width:10"/><path d="m105.1 612.18 53.8-18.68" style="fill:none;stroke:#000000;stroke-width:10"/><path d="m433.43 158.34-22.89 7.95" style="fill:none;stroke:#000000;stroke-width:10"/><path d="m433.43 243.3-22.89 7.95" style="fill:none;stroke:#000000;stroke-width:10"/><path d="m433.43 328.27-22.89 7.94" style="fill:none;stroke:#000000;stroke-width:10"/><path d="m433.43 413.23-22.89 7.95" style="fill:none;stroke:#000000;stroke-width:10"/><path d="m433.43 498.19-22.89 7.95" style="fill:none;stroke:#000000;stroke-width:10"/><path d="m433 498.19 14.15 4.73" style="fill:none;stroke:#000000;stroke-width:10"/><path d="m433 414.84 14.15 4.73" style="fill:none;stroke:#000000;stroke-width:10"/><path d="m433 329.88 14.15 4.72" style="fill:none;stroke:#000000;stroke-width:10"/><path d="m433 244.91 14.15 4.73" style="fill:none;stroke:#000000;stroke-width:10"/><path d="m433 159.95 14.15 4.73" style="fill:none;stroke:#000000;stroke-width:10"/><path d="m649.5 317.24 25 8.35" style="fill:none;stroke:#000000;stroke-width:10"/><path d="m649.5 402.2 25 8.35" style="fill:none;stroke:#000000;stroke-width:10"/><path d="m649.5 487.17 25 8.34" style="fill:none;stroke:#000000;stroke-width:10"/><path d="m649.5 570.52 25 8.35" style="fill:none;stroke:#000000;stroke-width:10"/><path d="m469.5 428.6h19l-30.79-27.59s-13.75-8.4-16.71-9.51-36.23-6.9-36.23-6.9l-31.05 8.47-20.74 22.66-29.46 36-10.05 74.9-35.53 36.23-36.99 24.94v22.37l14.27 18.64 16.78 11.83c12.25-2.48 29.51-7.77 45.58-20.48 19.83-15.69 22.48-30.54 43.6-73.98 36.41-74.9 58.32-92.06 67.38-98.42 15.57-10.94 30.77-16.34 40.94-19.16" style="fill:#ffffff;stroke:#fcfcfc;stroke-width:4"/><path d="m208.59 582.46c-30.74-64.09-50.2-144-50.2-144-20.38-61.15-16.98-82.64-10.43-92.98 1.4-2.21 2.47-3.77 4.49-5.44 23.49-19.52 88.17 24.55 91.82 27.08 23.83 16.51 20.8 21.1 36.33 27.74 25.39 10.86 56.39 8.39 79.27-3.96 18.36-9.91 25.17-22.78 47.56-60.11 59.81-99.73 74.39-113.28 93.14-120.22 2.29-.85 37.67-13.39 63.41 3.96 16.79 11.31 22.61 30.71 32.24 64.41 5.54 19.39 5.57 25.82 11.35 56.47 6.71 35.56 9.18 40.26 20.84 96.6 12.73 61.55 12.67 69.91 6.91 75.14-18.32 16.64-73.73-17.02-78.61-19.82-22.13-12.7-42.86-32.3-72-58.79-14.32-13.02-19.66-18.6-31.05-23.78-3.48-1.59-35.55-15.68-64.07-3.3-23.25 10.09-32.32 32.64-48.22 73.98-16.24 42.23-13.45 56.33-32.37 103.05-21.06 52-33.52 56.83-40.29 57.47-14.59 1.36-29.42-13.53-38.31-22.46-13.08-13.11-19.55-26.33-21.81-31.04z" style="fill:#9ce7ff;stroke:#ffffff;stroke-width:4"/><path d="m272 640.64-24.3-11.84" style="fill:none;stroke:#ffffff;stroke-width:4"/></g></svg>