<?xml version="1.0"?><svg xmlns="http://www.w3.org/2000/svg" style="enable-background:new 0 0 800 800" viewBox="0 0 800 800"><rect height="750" rx="100" style="fill:#3d85e7" width="750" x="25" y="25"/><g style="fill:none"><path d="m371 474h60" style="stroke-width:10;stroke:#000000"/><path d="m371 174h60" style="stroke-width:10;stroke:#000000"/><path d="m371 249h60" style="stroke-width:11;stroke:#000000"/><path d="m371 324h60" style="stroke-width:11;stroke:#000000"/><path d="m326 369v60" style="stroke-width:10;stroke:#000000"/><path d="m476 369v60" style="stroke-width:10;stroke:#000000"/><path d="m626 369v60" style="stroke-width:10;stroke:#000000"/><path d="m551 369v60" style="stroke-width:10;stroke:#000000"/><path d="m401 119v560" style="stroke-width:20;stroke:#000000"/><path d="m371 549h60" style="stroke-width:10;stroke:#000000"/><path d="m251 369v60" style="stroke-width:10;stroke:#000000"/><path d="m106 399h575" style="stroke-width:20;stroke:#000000"/><path d="m371 624h60" style="stroke-width:10;stroke:#000000"/><path d="m176 369v60" style="stroke-width:10;stroke:#000000"/><path d="m4.62917-3.22321c.22226.14817.44536.2969.62508.43511.12411.09544.23257.18973.30057.27418.04134.05135.07435.10727.07435.15674 0 .04663-.02936.07881-.07612.0999-.05163.02328-.1268.03407-.21677.03407-.18867 0-.4471-.04747-.70542-.13341-.15944-.05304-.31902-.1208-.46257-.20131-.13607-.07631-.25644-.16336-.34877-.2592-.12241-.12706-.19035-.26418-.19035-.40608s.06794-.27902.19035-.40608c.09233-.09584.2127-.18289.34877-.2592.14355-.08051.30313-.14827.46257-.20131.25832-.08594.51675-.13341.70542-.13341.08997 0 .16514.01079.21677.03407.04676.02109.07612.05327.07612.0999 0 .04947-.03301.10539-.07435.15674-.068.08445-.17646.17874-.30057.27418-.17972.13821-.40283.28694-.62508.43511-.22226.14817-.44536.2969-.62508.43511-.12411.09544-.23257.18973-.30057.27418-.04134.05135-.07435.10727-.07435.15674 0 .04663.02936.07881.07612.0999.05163.02328.1268.03407.21677.03407.18867 0 .4471-.04747.70542-.13341.15944-.05304.31902-.1208.46257-.20131.13607-.07631.25644-.16336.34877-.2592.12241-.12706.19035-.26418.19035-.40608s-.06794-.27902-.19035-.40608c-.09233-.09584-.2127-.18289-.34877-.2592-.14355-.08051-.30313-.14827-.46257-.20131-.25832-.08594-.51675-.13341-.70542-.13341-.08997 0-.16514.01079-.21677.03407-.04676.02109-.07612.05327-.07612.0999 0 .04947.03301.10539.07435.15674.068.08445.17646.17874.30057.27418.17972.13821.40283.28694.62508.43511z" style="stroke:#ff0000;stroke-width:.01;stroke-linejoin:round;stroke-linecap:round" transform="matrix(280 0 0 -280 300 300)"/><path d="m.35714-.35714c.22226.14817.44536.2969.62508.43511.12411.09544.23257.18973.30057.27418.04134.05135.07435.10727.07435.15674 0 .04663-.02936.07881-.07612.0999-.05163.02328-.1268.03407-.21677.03407-.18867 0-.4471-.04747-.70542-.13341-.15944-.05304-.31902-.1208-.46257-.20131-.13607-.07631-.25644-.16336-.34877-.2592-.12241-.12706-.19035-.26418-.19035-.40608s.06794-.27902.19035-.40608c.09233-.09584.2127-.18289.34877-.2592.14355-.08051.30313-.14827.46257-.20131.25832-.08594.51675-.13341.70542-.13341.08997 0 .16514.01079.21677.03407.04676.02109.07612.05327.07612.0999 0 .04947-.03301.10539-.07435.15674-.068.08445-.17646.17874-.30057.27418-.17972.13821-.40283.28694-.62508.43511-.22226.14817-.44536.2969-.62508.43511-.12411.09544-.23257.18973-.30057.27418-.04134.05135-.07435.10727-.07435.15674 0 .04663.02936.07881.07612.0999.05163.02328.1268.03407.21677.03407.18867 0 .4471-.04747.70542-.13341.15944-.05304.31902-.1208.46257-.20131.13607-.07631.25644-.16336.34877-.2592.12241-.12706.19035-.26418.19035-.40608s-.06794-.27902-.19035-.40608c-.09233-.09584-.2127-.18289-.34877-.2592-.14355-.08051-.30313-.14827-.46257-.20131-.25832-.08594-.51675-.13341-.70542-.13341-.08997 0-.16514.01079-.21677.03407-.04676.02109-.07612.05327-.07612.0999 0 .04947.03301.10539.07435.15674.068.08445.17646.17874.30057.27418.17972.13821.40283.28694.62508.43511z" style="stroke:#ffffff;stroke-linecap:round;stroke-linejoin:round;stroke-width:.1" transform="matrix(280 0 0 -280 300 300)"/></g></svg>