<svg xmlns="http://www.w3.org/2000/svg" xml:space="preserve" viewBox="0 0 800 800"><path fill="#3d85e7" d="M125 25h550c55.23 0 100 44.77 100 100v550c0 55.23-44.77 100-100 100H125c-55.23 0-100-44.77-100-100V125C25 69.77 69.77 25 125 25z"/><g fill="none" stroke="#000"><path stroke-width="10" d="M367.65 483.04h64.7M367.65 150.89h64.7M367.65 316.96h64.7M327.22 366.79v66.42M488.96 366.79v66.42M650.7 366.79v66.42"/><path stroke-width="20" d="M400 90v620M90 400h620"/><path stroke-width="10" d="M367.65 649.11h64.7M165.48 366.79v66.42M367.65 90h64.7M367.65 710h64.7M90 432.35v-64.7M710 432.35v-64.7M367.65 233.93h64.7M569.83 366.79v66.42M367.65 566.07h64.7M246.35 366.79v66.42"/></g><path xmlns:inkscape="http://www.inkscape.org/namespaces/inkscape" xmlns:sodipodi="http://sodipodi.sourceforge.net/DTD/sodipodi-0.dtd" xmlns:svg="http://www.w3.org/2000/svg" inkscape:version="1.1.2 (b8e25be833, 2022-02-05)" sodipodi:docname="Find Linear.svg" fill="#84d6ff" stroke="#fff" stroke-miterlimit="10" stroke-width="14" d="m400 400 12.38-.12 12.36-.37 12.31-.62 12.24-.86 12.15-1.1 12.03-1.34 11.89-1.57 11.73-1.8 11.55-2.02 11.34-2.23 11.11-2.44 10.87-2.64 10.6-2.83 10.31-3.01 10.01-3.18 9.68-3.33 9.34-3.48 8.98-3.61 8.61-3.73 8.22-3.84 7.81-3.94 7.39-4.02 6.96-4.08 6.52-4.13 6.07-4.17 5.61-4.19 5.14-4.19 4.66-4.18 4.17-4.15 3.68-4.11 3.19-4.05 2.69-3.98 2.19-3.88 1.68-3.78 1.18-3.65.68-3.52.18-3.36-.32-3.19-.81-3.01-1.3-2.81-1.78-2.6-2.25-2.38-2.72-2.14-3.18-1.89-3.63-1.63-4.06-1.35-4.49-1.07-4.9-.77-5.3-.47-5.69-.16-6.06.16-6.41.49-6.75.82-7.07 1.16-7.38 1.5-7.65 1.84-7.93 2.2-8.18 2.55-8.41 2.9-8.62 3.25-8.81 3.61-8.98 3.96-9.13 4.3-9.26 4.65-9.37 4.98-9.46 5.32-9.52 5.64-9.57 5.96-9.59 6.28-9.6 6.58-9.58 6.87-9.55 7.15-9.49 7.42-9.42 7.68-9.32 7.92-9.21 8.15-9.08 8.37-8.93 8.57-8.76 8.75-8.58 8.92-8.38 9.07-8.17 9.2-7.94 9.31-7.7 9.41-7.44 9.49-7.17 9.54-6.89 9.58-6.6 9.6-6.3 9.59-5.99 9.57-5.67 9.53-5.34 9.46-5.01 9.38-4.67 9.27-4.33 9.14-3.98 8.99-3.63 8.82-3.28 8.64-2.93 8.43-2.58 8.2-2.23 7.95-1.88 7.68-1.53 7.4-1.19 7.1-.85 6.78-.51 6.44-.19 6.08.13 5.72.45 5.33.75 4.93 1.05 4.52 1.33 4.1 1.6 3.66 1.87 3.21 2.12 2.76 2.36 2.29 2.58 1.82 2.8 1.34 3 .85 3.18.36 3.35-.14 3.5-.64 3.64-1.14 3.77-1.64 3.88-2.15 3.97-2.65 4.05-3.15 4.11-3.64 4.15-4.13 4.18-4.62 4.19-5.1 4.19-5.57 4.17-6.03 4.14-6.49 4.09-6.93 4.02-7.36 3.94-7.78 3.85-8.18 3.74-8.58 3.62-8.95 3.49-9.31 3.35-9.65 3.19-9.98 3.02-10.29 2.84-10.58 2.65-10.85 2.46-11.09 2.25-11.32 2.04-11.53 1.82-11.72 1.59-11.88 1.36-12.02 1.12-12.14.88-12.23.64-12.31.39-12.36.14-12.38-.1-12.38-.35-12.36-.6-12.32-.84-12.25-1.08-12.16-1.32-12.04-1.55-11.9-1.78-11.74-2-11.56-2.22-11.36-2.42-11.13-2.67-10.91-2.81-10.62-2.99-10.34-3.16-10.03-3.32-9.71-3.47-9.37-3.6-9.01-3.72-8.64-3.83-8.25-3.93-7.84-4.01-7.43-4.08-7-4.13-6.56-4.17-6.11-4.19-5.64-4.19-5.17-4.18-4.7-4.16-4.21-4.11-3.72-4.06-3.23-3.98-2.73-3.89-2.23-3.79-1.72-3.67-1.22-3.53-.72-3.38-.22-3.21.28-3.03.77-2.83 1.26-2.62 1.74-2.4 2.22-2.16 2.68-1.91 3.14-1.65 3.59-1.37 4.03-1.09 4.45-.8 4.87-.5 5.27-.18 5.66.14 6.03.46 6.38.79 6.72 1.13 7.05 1.48 7.35 1.82 7.64 2.17 7.91 2.52 8.16 2.87 8.39 3.23 8.6 3.58 8.8 3.93 8.97 4.28 9.12 4.62 9.25 4.96 9.36 5.29 9.45 5.62 9.52 5.94 9.57 6.25 9.59 6.55 9.6 6.85 9.58 7.13 9.55 7.4 9.5 7.66 9.42 7.9 9.33 8.13 9.22 8.35 9.09 8.55 8.94 8.74 8.78 8.9 8.6 9.06 8.4 9.19 8.19 9.31 7.96 9.4 7.72 9.48 7.46 9.54 7.19 9.58 6.91 9.6 6.62 9.6 6.32 9.57 6.01 9.53 5.7 9.47 5.37 9.38 5.04 9.28 4.7 9.15 4.36 9.01 4.01 8.84 3.66 8.65 3.31 8.44 2.96 8.22 2.61 7.97 2.25 7.71 1.9 7.42 1.56 7.12 1.21 6.8.87 6.47.54 6.11.21 5.75-.11 5.36-.42 4.96-.73 4.55-1.02 4.13-1.31 3.7-1.58 3.25-1.85 2.79-2.1 2.33-2.34 1.85-2.57 1.37-2.78.89-2.98.39-3.17-.1-3.34-.6-3.49-1.1-3.63-1.6-3.76-2.11-3.87-2.61-3.96-3.11-4.04-3.6-4.1-4.09-4.15-4.58-4.18-5.06-4.19-5.53-4.19-6-4.17-6.45-4.14-6.89-4.09-7.33-4.03-7.75-3.95-8.15-3.86-8.54-3.75-8.92-3.63-9.28-3.5-9.63-3.36-9.96-3.2-10.26-3.03-10.55-2.86-10.83-2.67-11.08-2.47-11.31-2.27-11.51-2.05-11.7-1.83-11.87-1.61-12.01-1.38-12.13-1.14-12.23-.9-12.3-.66-12.35-.41-12.37-.13-12.38.08-12.36.33-12.32.58-12.25.82-12.16 1.06-12.05 1.3-11.92 1.53-11.76 1.76-11.58 1.99-11.37 2.2-11.15 2.41-10.91 2.61-10.64 2.8-10.36 2.98-10.06 3.15-9.73 3.31-9.39 3.46-9.04 3.59-8.67 3.72-8.28 3.83-7.88 3.92-7.46 4-7.03 4.07-6.59 4.12-6.14 4.16-5.68 4.19-5.21 4.19-4.73 4.18-4.25 4.16-3.76 4.12-3.27 4.06-2.77 3.99-2.27 3.9-1.76 3.8-1.26 3.68-.76 3.54-.26 3.39.24 3.22.73 3.04 1.22 2.85 1.7 2.64 2.18 2.41 2.65 2.18 3.11 1.93 3.55 1.67 3.99 1.4 4.42 1.11 4.84.82 5.24.52 5.62.21 6-.11 6.36-.44 6.7-.77 7.02-1.11 7.33-1.45 7.62-1.79 7.89-2.14 8.14-2.49 8.37-2.85 8.59-3.2 8.78-3.55 8.95-3.9 9.11-4.25 9.24-4.59 9.35-4.93 9.44-5.27 9.51-5.59 9.56-5.91 9.59-6.23 9.6-6.53 9.59-6.82 9.55-7.11 9.5-7.38 9.43-7.64 9.34-7.88 9.23-8.12 9.1-8.33 8.96-8.54 8.79-8.72 8.61-8.89 8.42-9.05 8.2-9.18 7.98-9.3 7.74-9.4 7.48-9.48 7.22-9.54 6.94-9.58 6.65-9.6 6.35-9.6 6.04-9.58 5.72-9.53 5.4-9.47 5.06-9.39 4.73-9.29 4.39-9.16 4.04-9.02 3.69-8.85 3.34-8.67 2.99-8.46 2.63-8.24 2.28-7.99 1.93-7.73 1.59-7.45 1.24-7.15.9-6.83.57-6.49.24-6.14-.08-5.78-.4-5.39-.7-5-1-4.59-1.29-4.16-1.56-3.73-1.83-3.29-2.08-2.83-2.32-2.37-2.55-1.89-2.76-1.41-2.97-.93-3.15-.43-3.32.06-3.48.56-3.62 1.06-3.75 1.56-3.86 2.07-3.96 2.57-4.03 3.07-4.1 3.56-4.14 4.06-4.18 4.54-4.19 5.02-4.19 5.49-4.17 5.96-4.14 6.41-4.09 6.86-4.03 7.29-3.96 7.71-3.87 8.12-3.76 8.51-3.64 8.89-3.51 9.25-3.37 9.6-3.21 9.93-3.05 10.24-2.87 10.53-2.68 10.8-2.49 11.06-2.28 11.29-2.07 11.5-1.85 11.69-1.63 11.85-1.39 12-1.16 12.12-.92 12.22-.68 12.3-.43 12.35-.18 12.38.06 12.38.31 12.37.56 12.32.8 12.26 1.04 12.17 1.28 12.06 1.52 11.93 1.75 11.77 1.97 11.59 2.18 11.39 2.39 11.17 2.59 10.93 2.78 10.66 2.96 10.38 3.14 10.08 3.3 9.76 3.45 9.42 3.58 9.07 3.71 8.7 3.82 8.31 3.91 7.91 4 7.49 4.07 7.07 4.12 6.63 4.16 6.18 4.18 5.72 4.19 5.25 4.18 4.77 4.16 4.29 4.12 3.8 4.07 3.31 4 2.81 3.91 2.31 3.8 1.8 3.69 1.3 3.55.8 3.4.3 3.24-.2 3.06-.69 2.86-1.18 2.65-1.66 2.43-2.14 2.2-2.61 1.95-3.07 1.69-3.52 1.42-3.96 1.14-4.39.85-4.8.54-5.21.23-5.59-.08-5.97-.41-6.33-.74-6.67-1.08-7-1.42-7.31-1.77-7.6-2.12-7.87-2.47-8.12-2.82-8.36-3.17-8.57-3.52-8.77-3.87-8.94-4.22-9.1-4.56-9.23-4.9-9.34-5.24-9.44-5.57-9.51-5.89-9.56-6.2-9.59-6.51-9.6-6.8-9.59-7.08-9.56-7.36-9.51-7.62-9.44-7.86-9.35-8.1-9.24-8.32-9.11-8.52-8.97-8.71-8.81-8.88-8.63-9.03-8.43-9.17-8.22-9.29-8-9.39-7.76-9.47-7.5-9.53-7.24-9.57-6.96-9.6-6.67-9.6-6.37-9.58-6.06-9.54-5.75-9.48-5.42-9.4-5.09-9.3-4.75-9.17-4.41-9.03-4.07-8.87-3.72-8.68-3.37-8.48-3.01-8.26-2.66-8.01-2.31-7.75-1.96-7.47-1.61-7.17-1.27-6.85-.93-6.52-.59-6.17-.26-5.8.06-5.42.37-5.03.68-4.62.98-4.2 1.26-3.77 1.54-3.32 1.81-2.87 2.06-2.4 2.3-1.93 2.53-1.45 2.75-.96 2.95-.47 3.14.02 3.31.52 3.47 1.02 3.61 1.52 3.74 2.03 3.85 2.53 3.95 3.03 4.03 3.52 4.09 4.02 4.14 4.5 4.17 4.98 4.19 5.46 4.19 5.92 4.18 6.38 4.15 6.82 4.1 7.26 4.04 7.68 3.96 8.09 3.87 8.48 3.77 8.86 3.65 9.23 3.52 9.57 3.38 9.9 3.23 10.22 3.06 10.51 2.89 10.78 2.7 11.04 2.5 11.27 2.3 11.48 2.09 11.67 1.87 11.84 1.64 11.99 1.41 12.11 1.18 12.21.94 12.29.69 12.35.45 12.38.2"/></svg>