<svg style="enable-background:new 0 0 800 800" viewBox="0 0 800 800" xmlns="http://www.w3.org/2000/svg"><path d="m125 25h550c55.23 0 100 44.77 100 100v550c0 55.23-44.77 100-100 100h-550c-55.23 0-100-44.77-100-100v-550c0-55.23 44.77-100 100-100z" style="fill:#3d85e7"/><g style="fill:none"><path d="m600 131c-47.64 76.96-117.42 172.7-217 268-79.12 75.72-156.92 131.91-223 173" style="stroke:#84d6ff;stroke-width:40"/><path d="m680 244.28h-136v146.72h-126v106.02h-118v92.54h-131" style="stroke:#ffffff;stroke-width:40"/><path d="m105 640h575" style="stroke:#000000;stroke-width:20"/><path d="m160 120v560" style="stroke:#000000;stroke-width:20"/><path d="m130 540h60" style="stroke:#000000;stroke-width:10"/><path d="m130 440h60" style="stroke:#000000;stroke-width:10"/><path d="m130 140h60" style="stroke:#000000;stroke-width:10"/><path d="m130 240h60" style="stroke:#000000;stroke-width:11"/><path d="m130 340h60" style="stroke:#000000;stroke-width:11"/><path d="m260 670v-60" style="stroke:#000000;stroke-width:10"/><path d="m360 670v-60" style="stroke:#000000;stroke-width:10"/><path d="m460 670v-60" style="stroke:#000000;stroke-width:10"/><path d="m660 670v-60" style="stroke:#000000;stroke-width:10"/><path d="m560 670v-60" style="stroke:#000000;stroke-width:10"/></g></svg>