<svg xmlns="http://www.w3.org/2000/svg" xml:space="preserve" viewBox="0 0 800 800"><path fill="#f15b22" d="M125 25h550c55.2 0 100 44.8 100 100v550c0 55.2-44.8 100-100 100H125c-55.2 0-100-44.8-100-100V125C25 69.8 69.8 25 125 25z"/><path fill="#f79329" d="M400 675h.3V400H125c0 151.9 123.1 275 275 275z"/><path fill="#ed5523" d="M400 675c151.9 0 275-123.1 275-275H400v275z"/><path fill="#f79329" d="M400 125v275h275c0-151.9-123.1-275-275-275z"/><path fill="#ed5523" d="M400.3 125h-.3c-151.9 0-275 123.1-275 275h275.3V125z"/><circle cx="400" cy="400" r="50" fill="#ed5523"/><circle cx="400" cy="400" r="275" fill="none" stroke="#000" stroke-miterlimit="10" stroke-width="40"/><path fill="none" stroke="#fff" stroke-miterlimit="10" stroke-width="40" d="M400 62.5v125M62.5 400h125m425 0h125M400 612.5v125m0-537.5v30m0 340v30M200.3 400h30m24.7 0h30m20 0h50m90 0h50m20 0h30m25 0h30m-200-45v-50m0-20v-30m0 260v30m0-100v50"/><circle cx="400" cy="400" r="50" fill="none" stroke="#fff" stroke-miterlimit="10" stroke-width="40"/></svg><svg xmlns="http://www.w3.org/2000/svg" xml:space="preserve" viewBox="0 0 800 800"><path fill="#f15b22" d="M125 25h550c55.2 0 100 44.8 100 100v550c0 55.2-44.8 100-100 100H125c-55.2 0-100-44.8-100-100V125C25 69.8 69.8 25 125 25z"/><path fill="#f79329" d="M400 675h.3V400H125c0 151.9 123.1 275 275 275z"/><path fill="#ed5523" d="M400 675c151.9 0 275-123.1 275-275H400v275z"/><path fill="#f79329" d="M400 125v275h275c0-151.9-123.1-275-275-275z"/><path fill="#ed5523" d="M400.3 125h-.3c-151.9 0-275 123.1-275 275h275.3V125z"/><circle cx="400" cy="400" r="50" fill="#ed5523"/><circle cx="400" cy="400" r="275" fill="none" stroke="#000" stroke-miterlimit="10" stroke-width="40"/><path fill="none" stroke="#fff" stroke-miterlimit="10" stroke-width="40" d="M400 62.5v125M62.5 400h125m425 0h125M400 612.5v125m0-537.5v30m0 340v30M200.3 400h30m24.7 0h30m20 0h50m90 0h50m20 0h30m25 0h30m-200-45v-50m0-20v-30m0 260v30m0-100v50"/><circle cx="400" cy="400" r="50" fill="none" stroke="#fff" stroke-miterlimit="10" stroke-width="40"/></svg>