<svg xmlns="http://www.w3.org/2000/svg" viewBox="0 0 800 800"><rect width="750" height="750" x="24" y="25" fill="#ae3314" rx="100"/><path fill="#590b01" stroke="#fff" stroke-width="16" d="M300 101.5h200v115H300z"/><path fill="#ae3314" stroke="#fff" stroke-width="16" d="M300 222.5h200v115H300zM300 342h200v115H300zM300 462.5h200v115H300zM300 583.5h200v115H300z"/><path fill="#590b01" stroke="#fff" stroke-width="16" d="M500 101.5h200v115H500z"/><path fill="#ae3314" stroke="#fff" stroke-width="16" d="M500 222.5h200v115H500zM500 342h200v115H500zM500 462.5h200v115H500zM500 582.5h200v115H500z"/><path fill="#f1998f" stroke="#fff" stroke-width="16" d="M101 101.5h200v115H101z"/><path fill="#590b01" stroke="#fff" stroke-width="16" d="M101 223.5h200v115H101zM101 343h200v115H101zM101 463.5h200v115H101zM101 583.5h200v115H101z"/></svg>