<svg xmlns="http://www.w3.org/2000/svg" viewBox="0 0 800 800"><rect width="750" height="750" x="25" y="25" fill="#9439b5" rx="100"/><path fill="#280c7d" stroke="#fff" stroke-width="12" d="M522 252h115v389H522z"/><path fill="#9479d8" stroke="#fff" stroke-width="12" d="M405 361h115v276H405z"/><path fill="#321780" stroke="#fff" stroke-width="12" d="M289 442h115v197H289V442z" opacity="undefined"/><path fill="none" stroke="#000" stroke-width="10" d="M130 540h60M130 440h60"/><path fill="none" stroke="#000" stroke-width="11" d="M130 240h60M130 340h60"/><path fill="#8e6fd7" stroke="#fff" stroke-width="12" d="M174 194h115v444H174z"/><path fill="none" stroke="#000" stroke-width="10" d="M133 140h60M260 670v-60M360 670v-60M460 670v-60M660 670v-60M560 670v-60"/><path fill="none" stroke="#000" stroke-width="20" d="M160 120v560M105 640h575"/></svg>