<svg xmlns="http://www.w3.org/2000/svg" viewBox="0 0 54.9856 65.4876"><defs><style>.a{fill:#231f20;}</style></defs><path class="a" d="M60.5205,13.4053a23.9976,23.9976,0,0,1,1.8906-2.79q.4484-.6283,1.26-1.8.81-1.169,1.17-1.8,1.3506-1.891,2.25-1.17a1.92,1.92,0,0,1,.36,1.35v22.32q0,1.44-.6309,1.71a1.9382,1.9382,0,0,1-1.0791.09q-.7221-.0892-.9-.45a2.1757,2.1757,0,0,1-.27-1.26,6.4258,6.4258,0,0,0-.09-.8555q-.0909-.5844-.18-.9443a42.7642,42.7642,0,0,0-1.53-5.3106,24.64,24.64,0,0,0-4.68-7.875,17.8381,17.8381,0,0,0-7.11-4.9951,18.3906,18.3906,0,0,0-5.04-1.17,20.35,20.35,0,0,0-9.54,1.8,15.1716,15.1716,0,0,0-2.0693,1.08,2.7658,2.7658,0,0,0-.8106.63,2.4969,2.4969,0,0,0-.18,1.08v50.49a2.1373,2.1373,0,0,0,.27,1.35,4.9522,4.9522,0,0,0,1.53.99,19.9079,19.9079,0,0,0,4.86,1.8,23.2154,23.2154,0,0,0,5.9394.63,20.4775,20.4775,0,0,0,16.11-9.63,21.0011,21.0011,0,0,0,2.79-7.2891,25.7706,25.7706,0,0,0,.36-2.79,5.128,5.128,0,0,1,.09-1.3506c.1192-.4189.4639-.63,1.0352-.63a.934.934,0,0,1,1.0342.72,6.3447,6.3447,0,0,1,0,2.16,21.4962,21.4962,0,0,1-1.17,5.67,23.1679,23.1679,0,0,1-5.13,8.5049,23.89,23.89,0,0,1-8.1894,5.7149,26.9629,26.9629,0,0,1-7.4707,1.71,29.1016,29.1016,0,0,1-6.4795-.4492A30.2043,30.2043,0,0,1,23.44,63.1748a32.23,32.23,0,0,1-9.4492-14.5791A33.9547,33.9547,0,0,1,12.7305,34.24,32.9318,32.9318,0,0,1,17.501,20.6055a30.53,30.53,0,0,1,4.8594-6.03,29.2644,29.2644,0,0,1,6.9306-5.13,33.36,33.36,0,0,1,9.8994-3.42,24.265,24.265,0,0,1,11.25.63,20.4829,20.4829,0,0,1,7.2,4.05q.5406.4512,1.53,1.44A16.0853,16.0853,0,0,0,60.5205,13.4053Zm-29.97.63a13.3679,13.3679,0,0,0-2.7,2.79,25.5986,25.5986,0,0,0-4.5,8.64,47.0457,47.0457,0,0,0-1.53,10.08,45.9157,45.9157,0,0,0,1.8906,16.74,25.7534,25.7534,0,0,0,3.78,7.2,20.4054,20.4054,0,0,0,3.06,3.2392Z" transform="translate(-12.4656 -5.6472)"/></svg>