<svg style="0 0 800 800" viewBox="0 0 800 800" xmlns="http://www.w3.org/2000/svg"><path d="m125 25h550c55.23 0 100 44.77 100 100v550c0 55.23-44.77 100-100 100h-550c-55.23 0-100-44.77-100-100v-550c0-55.23 44.77-100 100-100z" style="fill:#9439b5"/><path d="m74 592h70l35-123 48 201 57-211 35.5 234 97-193 32 210 57-30 41-243.5 42.5 141.5 46-66 54 128" style="fill:none;stroke:#4a0873;stroke-width:40;stroke-miterlimit:10"/><path d="m460 466.58v-164.58h-120v164.58c-34 20.41-56.75 57.63-56.75 100.17 0 64.48 52.27 116.75 116.75 116.75s116.75-52.27 116.75-116.75c0-42.54-22.75-79.76-56.75-100.17z" style="fill:#bd73ff"/><g style="fill:none;stroke-miterlimit:10;stroke:#ffffff"><path d="m459.5 475.83v-309.58c0-33.14-26.86-60-60-60s-60 26.86-60 60v309.58c-34 20.41-56.75 57.63-56.75 100.17 0 64.48 52.27 116.75 116.75 116.75s116.75-52.27 116.75-116.75c0-42.54-22.75-79.76-56.75-100.17z" style="stroke-width:37"/><path d="m399.5 198.25h60" style="stroke-width:28"/><path d="m399.5 279.75h60" style="stroke-width:28"/><path d="m399 361.25h60" style="stroke-width:28"/><path d="m399 442.75h60" style="stroke-width:28"/></g></svg>