<?xml version="1.0" encoding="UTF-8" standalone="no"?>
<svg
   width="800"
   height="800"
   version="1.0"
   id="svg141"
   sodipodi:docname="Explorer.svg"
   inkscape:version="1.1.2 (b8e25be833, 2022-02-05)"
   xmlns:inkscape="http://www.inkscape.org/namespaces/inkscape"
   xmlns:sodipodi="http://sodipodi.sourceforge.net/DTD/sodipodi-0.dtd"
   xmlns="http://www.w3.org/2000/svg"
   xmlns:svg="http://www.w3.org/2000/svg">
  <defs
     id="defs145" />
  <sodipodi:namedview
     id="namedview143"
     pagecolor="#ffffff"
     bordercolor="#666666"
     borderopacity="1.0"
     inkscape:pageshadow="2"
     inkscape:pageopacity="0.0"
     inkscape:pagecheckerboard="0"
     showgrid="false"
     inkscape:zoom="0.5"
     inkscape:cx="694"
     inkscape:cy="829"
     inkscape:window-width="1927"
     inkscape:window-height="1124"
     inkscape:window-x="104"
     inkscape:window-y="104"
     inkscape:window-maximized="0"
     inkscape:current-layer="g139" />
  <rect
     fill="#5aa620"
     stroke="#000000"
     x="25"
     y="25"
     width="750"
     height="750"
     id="svg_15"
     rx="100"
     stroke-width="0"
     inkscape:label="Achtergrond" />
  <g
     id="g139"
     inkscape:label="g139">
    <title
       id="title78">Layer 1</title>
    <g
       id="svg_17">
      <title
         stroke="#000"
         fill="#5aa620"
         id="title80">Layer 1</title>
      <line
         fill="#5aa620"
         stroke="#000000"
         x1="371"
         y1="474"
         x2="431"
         y2="474"
         id="svg_14"
         stroke-width="10" />
      <line
         fill="#5aa620"
         stroke="#000000"
         x1="371"
         y1="174"
         x2="431"
         y2="174"
         id="svg_13"
         stroke-width="10" />
      <line
         fill="#5aa620"
         stroke="#000000"
         x1="371"
         y1="249"
         x2="431"
         y2="249"
         id="svg_12"
         stroke-width="11" />
      <line
         fill="#5aa620"
         stroke="#000000"
         x1="371"
         y1="324"
         x2="431"
         y2="324"
         id="svg_11"
         stroke-width="11" />
      <line
         fill="#5aa620"
         stroke="#000000"
         stroke-width="10"
         x1="326"
         y1="369"
         x2="326"
         y2="429"
         id="svg_10" />
      <line
         fill="#5aa620"
         stroke="#000000"
         stroke-width="10"
         x1="476"
         y1="369"
         x2="476"
         y2="429"
         id="svg_9" />
      <line
         fill="#5aa620"
         stroke="#000000"
         stroke-width="10"
         x1="626"
         y1="369"
         x2="626"
         y2="429"
         id="svg_8" />
      <line
         fill="#5aa620"
         stroke="#000000"
         stroke-width="10"
         x1="551"
         y1="369"
         x2="551"
         y2="429"
         id="svg_7" />
      <line
         fill="#5aa620"
         stroke="#000000"
         x1="401"
         y1="119"
         x2="401"
         y2="679"
         id="svg_6"
         stroke-width="20" />
      <line
         fill="#5aa620"
         stroke="#000000"
         x1="371"
         y1="549"
         x2="431"
         y2="549"
         id="svg_5"
         stroke-width="10" />
      <line
         fill="#5aa620"
         stroke="#000000"
         stroke-width="10"
         x1="251"
         y1="369"
         x2="251"
         y2="429"
         id="svg_4" />
      <line
         fill="#5aa620"
         stroke="#000000"
         x1="106"
         y1="399"
         x2="681"
         y2="399"
         id="svg_3"
         stroke-width="20" />
      <line
         fill="#5aa620"
         stroke="#000000"
         stroke-width="10"
         x1="371"
         y1="624"
         x2="431"
         y2="624"
         id="svg_2" />
      <line
         fill="#5aa620"
         stroke="#000000"
         stroke-width="10"
         x1="176"
         y1="369"
         x2="176"
         y2="429"
         id="svg_1" />
    </g>
    <ellipse
       ry="87.5"
       rx="81"
       id="svg_23"
       cy="642.5"
       cx="377"
       stroke-width="0.1"
       fill="#5aa620" />
    <g
       id="g1927"
       style="display:none"
       inkscape:label="parabool">
      <path
         style="fill:none;stroke:#ffffff;stroke-width:21.3333;stroke-linecap:butt;stroke-linejoin:miter;stroke-opacity:1"
         d="M 401,119 C 195.06394,118.989 97.53197,694.42762 97.53197,694.42762"
         id="path564" />
      <path
         style="display:inline;fill:none;stroke:#ffffff;stroke-width:21.3333;stroke-linecap:butt;stroke-linejoin:miter;stroke-opacity:1"
         d="m 401,119 c 205.93606,-0.011 303.46803,575.42762 303.46803,575.42762"
         id="path1923"
         inkscape:label="curve1" />
    </g>
    <path
       d="M 97.452726,694.31136 Q 246.21098,122.24765 401.10366,122.24765 q 154.89261,0 303.65087,572.06371"
       style="display:inline;fill:none;stroke:#ffffff;stroke-width:21.3333;stroke-miterlimit:4;stroke-dasharray:none;stroke-opacity:1"
       id="path1932"
       inkscape:label="Parabool NIEUW" />
    <ellipse
       ry="87.5"
       rx="81"
       id="ellipse2128"
       cy="636.5"
       cx="639"
       stroke-width="0.1"
       fill="#5aa620" />
    <g
       stroke="null"
       id="g137"
       inkscape:label="verrekijker"
       sodipodi:insensitive="true">
      <g
         stroke="null"
         id="g105">
        <g
           stroke="null"
           id="svg_19"
           fill="#d2fd78">
          <path
             stroke="null"
             d="m 634.8724,593.66952 c -24.96998,0 -45.16054,20.28811 -45.16054,45.16054 0,5.94988 4.87695,10.82683 10.82683,10.82683 5.94988,0 10.82683,-4.87695 10.82683,-10.82683 0,-12.97268 10.63175,-23.60443 23.60443,-23.60443 5.94988,0 10.82683,-4.87695 10.82683,-10.82683 -0.0975,-5.94988 -4.97449,-10.72929 -10.92436,-10.72929 z"
             id="svg_22" />
          <path
             stroke="null"
             d="m 708.51432,562.55459 c -2.63355,-2.53601 -5.46218,-4.97449 -8.38835,-7.31542 v 0 l -39.99098,-33.94356 c -15.41116,-10.92436 -33.74848,-17.84963 -53.64643,-19.21518 l 2.14586,2.14586 -24.2872,-24.38474 h -0.19508 c -6.73019,-6.14495 -15.80131,-9.94897 -25.65275,-9.94897 -16.97178,0 -31.31001,11.0219 -36.18696,26.33552 -4.87695,-3.12125 -10.53421,-4.97449 -16.67916,-5.36464 -0.97539,-0.0975 -2.04832,-0.0975 -3.02371,-0.0975 -6.92527,0 -13.36284,2.04832 -18.82502,5.46218 -4.97449,-15.21608 -19.31272,-26.23798 -36.18696,-26.23798 -9.85144,0 -18.82502,3.70648 -25.65275,9.94897 h -0.19508 l -24.2872,24.38474 2.14586,-2.14586 c -19.89795,1.36555 -38.33281,8.38835 -53.64643,19.21518 L 305.971,555.33671 v 0 c -2.92617,2.2434 -5.7548,4.68187 -8.38835,7.31542 -19.99549,19.31272 -32.38294,46.33101 -32.38294,76.27547 0,58.52338 47.59902,106.1224 106.1224,106.1224 54.03659,0 98.80697,-40.67375 105.24455,-93.05217 7.80312,4.48679 16.87424,7.02281 26.43306,7.02281 9.65636,0 18.62994,-2.53601 26.43306,-7.02281 6.53511,52.28089 51.20796,92.95464 105.24455,92.95464 58.52338,0 106.1224,-47.59902 106.1224,-106.1224 0.0975,-29.94446 -12.28991,-56.96276 -32.2854,-76.27547 z M 371.32211,711.30152 c -39.99098,0 -72.37391,-32.38294 -72.37391,-72.37391 0,-39.99097 32.38294,-72.37391 72.37391,-72.37391 39.99097,0 72.37391,32.38294 72.37391,72.37391 0.0975,39.89344 -32.38294,72.37391 -72.37391,72.37391 z m 131.77514,-82.32289 c -12.97268,0 -23.50689,-10.53421 -23.50689,-23.50689 0,-12.97268 10.53421,-23.50689 23.50689,-23.50689 12.97268,0 23.50689,10.53421 23.50689,23.50689 0,12.97268 -10.53421,23.50689 -23.50689,23.50689 z m 131.77514,82.32289 c -39.99098,0 -72.37391,-32.38294 -72.37391,-72.37391 0,-39.99097 32.38294,-72.37391 72.37391,-72.37391 39.99097,0 72.37391,32.38294 72.37391,72.37391 0,39.89344 -32.38294,72.37391 -72.37391,72.37391 z"
             id="svg_21" />
          <path
             stroke="null"
             d="m 371.32211,593.66952 c -24.96998,0 -45.16054,20.28811 -45.16054,45.16054 0,5.94988 4.87695,10.82683 10.82683,10.82683 5.94988,0 10.82683,-4.87695 10.82683,-10.82683 0,-12.97268 10.63175,-23.60443 23.60443,-23.60443 5.94988,0 10.82683,-4.87695 10.82683,-10.82683 -0.0975,-5.94988 -4.97449,-10.72929 -10.92436,-10.72929 z"
             id="svg_20" />
        </g>
      </g>
      <g
         stroke="null"
         id="g107" />
      <g
         stroke="null"
         id="g109" />
      <g
         stroke="null"
         id="g111" />
      <g
         stroke="null"
         id="g113" />
      <g
         stroke="null"
         id="g115" />
      <g
         stroke="null"
         id="g117" />
      <g
         stroke="null"
         id="g119" />
      <g
         stroke="null"
         id="g121" />
      <g
         stroke="null"
         id="g123" />
      <g
         stroke="null"
         id="g125" />
      <g
         stroke="null"
         id="g127" />
      <g
         stroke="null"
         id="g129" />
      <g
         stroke="null"
         id="g131" />
      <g
         stroke="null"
         id="g133" />
      <g
         stroke="null"
         id="g135" />
    </g>
  </g>
</svg>
