<svg
   version="1.1"
   width="210"
   height="100"
   viewBox="0 0 210 100"
   id="svg2299">
  <path
     fill="none"
     stroke="#0071BC"
     stroke-width="0.75"
     stroke-linecap="round"
     stroke-linejoin="round"
     stroke-miterlimit="10"
     d="M5.078,82.456c4.511-0.019,9.021-0.058,13.53-0.175c4.312-0.113,8.639-0.297,12.923-0.836c4.536-0.572,8.991-1.522,13.261-3.25c4.255-1.723,8.016-4.334,11.491-7.389c3.378-2.968,6.334-6.613,8.934-10.324c2.676-3.817,5.156-7.777,7.458-11.854c2.372-4.2,4.644-8.458,6.896-12.729c2.208-4.187,4.419-8.368,6.715-12.502c2.244-4.042,4.669-8.055,7.508-11.674c1.471-1.875,3.092-3.546,4.906-5.054c1.765-1.467,3.896-2.293,6.126-2.468c2.262-0.177,4.408,0.98,6.232,2.234c1.866,1.283,3.42,3.086,4.861,4.844c2.973,3.619,5.365,7.744,7.704,11.822c2.267,3.953,4.362,8.014,6.489,12.049c2.24,4.25,4.479,8.502,6.841,12.682c2.29,4.056,4.69,8.058,7.354,11.858c2.731,3.898,5.724,7.564,9.159,10.809c3.378,3.188,7.235,5.673,11.417,7.527c4.024,1.785,8.44,2.759,12.768,3.305c4.449,0.563,8.912,0.803,13.39,0.938c4.426,0.135,8.856,0.164,13.284,0.185c0.227,0,0.449,0.002,0.674,0.003"
     id="path2283" />
</svg>
