<svg width="800" height="800" xmlns="http://www.w3.org/2000/svg">
 <g>
  <title>Layer 1</title>
  <rect fill="#8650b2" stroke="#000" x="24" y="25" width="750" height="750" id="svg_2" rx="100" stroke-width="0"/>
  <path id="path2283" d="m67.53952,641.45038c15.00322,-0.12556 30.00311,-0.38329 44.99968,-1.15649c14.34136,-0.74676 28.73261,-1.96273 42.98085,-5.52471c15.08637,-3.78006 29.90333,-10.05814 44.10501,-21.47764c14.15178,-11.38645 26.66056,-28.64126 38.21813,-48.83023c11.23495,-19.61404 21.06637,-43.70204 29.71376,-68.22619c8.90016,-25.22466 17.14844,-51.39433 24.8047,-78.3372c7.88908,-27.75572 15.44557,-55.89473 22.93554,-84.11965c7.34363,-27.66981 14.69723,-55.29996 22.33354,-82.61951c7.46336,-26.71157 15.52871,-53.2315 24.971,-77.14767c4.89243,-12.39094 10.28374,-23.43375 16.31696,-33.39938c5.87025,-9.69468 12.95778,-15.1533 20.37458,-16.30979c7.52323,-1.16971 14.66065,6.47633 20.72713,14.7634c6.20616,8.47871 11.37464,20.39384 16.16729,32.01159c9.88796,23.91618 17.84355,51.17625 25.62288,78.12573c7.53986,26.12342 14.50766,52.96055 21.58189,79.62586c7.45006,28.08614 14.89679,56.1855 22.75261,83.80905c7.61635,26.80409 15.59856,53.25132 24.45881,78.36364c9.08308,25.75995 19.03756,49.98672 30.46209,71.43132c11.23495,21.06791 24.06302,37.49004 37.97201,49.74221c13.3835,11.79618 28.07075,18.23286 42.46533,21.84111c14.79701,3.72059 29.64059,5.30663 44.53405,6.19878c14.72052,0.89215 29.45434,1.08379 44.1815,1.22257c0.75498,0 1.49334,0.01322 2.24167,0.01983" stroke-miterlimit="10" stroke-linejoin="round" stroke-linecap="round" stroke-width="0.75" fill="#af86fc"/>
  <rect stroke="#000" id="svg_1" height="567.99999" width="309.99998" y="76" x="93" stroke-width="0" fill="#8650b2"/>
  <line fill="none" stroke="#000" stroke-width="10" x1="325" y1="670" x2="325" y2="610" id="svg_18"/>
  <line fill="none" stroke="#000" stroke-width="10" x1="475" y1="670" x2="475" y2="610" id="svg_19"/>
  <line fill="none" stroke="#000" stroke-width="10" x1="625" y1="670" x2="625" y2="610" id="svg_20"/>
  <line fill="none" stroke="#000" stroke-width="10" x1="550" y1="670" x2="550" y2="610" id="svg_21"/>
  <line fill="none" stroke="#000" stroke-width="10" x1="250" y1="670" x2="250" y2="610" id="svg_17"/>
  <line fill="none" stroke="#000" x1="105" y1="640" x2="680" y2="640" id="svg_4" stroke-width="20"/>
  <line fill="none" stroke="#000000" x1="368.5" y1="440" x2="428.5" y2="440" id="svg_13" stroke-width="10"/>
  <line fill="none" stroke="#000" x1="370" y1="140" x2="430" y2="140" id="svg_14" stroke-width="10"/>
  <line fill="none" stroke="#000" x1="368.5" y1="240" x2="428.5" y2="240" id="svg_15" stroke-width="11"/>
  <line fill="none" stroke="#000" x1="368.5" y1="340" x2="428.5" y2="340" id="svg_16" stroke-width="11"/>
  <line fill="none" stroke="#000" x1="398.5" y1="120" x2="398.5" y2="680" id="svg_3" stroke-width="20"/>
  <line fill="none" stroke="#000000" x1="368.5" y1="540" x2="428.5" y2="540" id="svg_12" stroke-width="10"/>
  <line id="svg_5" y2="670" x2="175" y1="610" x1="175" stroke-width="10" stroke="#000" fill="none"/>
  <path stroke-width="25" stroke="#ffffff" id="svg_6" d="m67.53952,641.45038c15.00322,-0.12556 30.00312,-0.38329 44.99968,-1.15648c14.34136,-0.74676 28.73261,-1.96273 42.98085,-5.52471c15.08637,-3.78007 29.90333,-10.05815 44.10501,-21.47764c14.15178,-11.38645 26.66056,-28.64126 38.21813,-48.83024c11.23495,-19.61403 21.06637,-43.70203 29.71376,-68.22619c8.90015,-25.22466 17.14843,-51.39433 24.8047,-78.3372c7.88908,-27.75572 15.44556,-55.89473 22.93553,-84.11965c7.34363,-27.6698 14.69724,-55.29996 22.33355,-82.61951c7.46336,-26.71158 15.52871,-53.2315 24.97099,-77.14768c4.89243,-12.39094 10.28374,-23.43375 16.31696,-33.39937c5.87025,-9.69468 12.95778,-15.1533 20.37458,-16.30979c7.52323,-1.16971 14.66065,6.47633 20.72712,14.7634c6.20617,8.47871 11.37465,20.39384 16.16729,32.01159c9.88796,23.91617 17.84356,51.17625 25.62288,78.12573c7.53986,26.12342 14.50766,52.96055 21.58189,79.62586c7.45006,28.08614 14.89679,56.1855 22.75261,83.80905c7.61635,26.80409 15.59856,53.25132 24.4588,78.36364c9.08309,25.75994 19.03756,49.98672 30.46209,71.43131c11.23496,21.06791 24.06302,37.49005 37.97202,49.74221c13.38349,11.79618 28.07075,18.23286 42.46533,21.84111c14.79701,3.72058 29.64058,5.30663 44.53405,6.19877c14.72051,0.89215 29.45433,1.0838 44.1815,1.22258c0.75498,0 1.49334,0.01321 2.24167,0.01982" stroke-miterlimit="10" stroke-linejoin="round" stroke-linecap="round" fill="none"/>
 </g>

</svg>