<svg style="enable-background:new 0 0 800 800" viewBox="0 0 800 800" xmlns="http://www.w3.org/2000/svg"><path d="m124 25h550c55.23 0 100 44.77 100 100v550c0 55.23-44.77 100-100 100h-550c-55.23 0-100-44.77-100-100v-550c0-55.23 44.77-100 100-100z" style="fill:#f15b22"/><g style="fill:none"><path d="m163.49 632.87 535-446" style="stroke:#fcb427;stroke-width:44;stroke-miterlimit:10"/><path d="m160 221 520 285.13" style="stroke:#fcb427;stroke-width:44;stroke-miterlimit:10"/><circle cx="467.74" cy="383.62" r="144.34" style="stroke:#ffffff;stroke-width:30;stroke-miterlimit:10"/><path d="m467.74 206.47v65.61" style="stroke:#ffffff;stroke-width:30;stroke-miterlimit:10"/><path d="m290.59 383.62h65.61" style="stroke:#ffffff;stroke-width:30;stroke-miterlimit:10"/><path d="m579.27 383.62h65.62" style="stroke:#ffffff;stroke-width:30;stroke-miterlimit:10"/><path d="m467.74 495.16v65.61" style="stroke:#ffffff;stroke-width:30;stroke-miterlimit:10"/><path d="m467.74 278.64v15.75" style="stroke:#ffffff;stroke-width:30;stroke-miterlimit:10"/><path d="m467.74 472.85v15.75" style="stroke:#ffffff;stroke-width:30;stroke-miterlimit:10"/><path d="m362.91 383.62h15.75" style="stroke:#ffffff;stroke-width:30;stroke-miterlimit:10"/><path d="m391.63 383.62h15.74" style="stroke:#ffffff;stroke-width:30;stroke-miterlimit:10"/><path d="m417.87 383.62h26.25" style="stroke:#ffffff;stroke-width:30;stroke-miterlimit:10"/><path d="m491.36 383.62h26.24" style="stroke:#ffffff;stroke-width:30;stroke-miterlimit:10"/><path d="m528.1 383.62h15.74" style="stroke:#ffffff;stroke-width:30;stroke-miterlimit:10"/><path d="m556.97 383.62h15.74" style="stroke:#ffffff;stroke-width:30;stroke-miterlimit:10"/><path d="m467.74 360v-26.24" style="stroke:#ffffff;stroke-width:30;stroke-miterlimit:10"/><path d="m467.74 323.26v-15.75" style="stroke:#ffffff;stroke-width:30;stroke-miterlimit:10"/><path d="m467.74 443.98v15.75" style="stroke:#ffffff;stroke-width:30;stroke-miterlimit:10"/><path d="m467.74 407.24v26.25" style="stroke:#ffffff;stroke-width:30;stroke-miterlimit:10"/><circle cx="467.74" cy="383.62" r="26.24" style="stroke:#ffffff;stroke-width:30;stroke-miterlimit:10"/><path d="m105 640h575" style="stroke:#000000;stroke-width:20"/><path d="m160 120v560" style="stroke:#000000;stroke-width:20"/><path d="m130 540h60" style="stroke:#000000;stroke-width:10"/><path d="m130 440h60" style="stroke:#000000;stroke-width:10"/><path d="m130 140h60" style="stroke:#000000;stroke-width:10"/><path d="m130 240h60" style="stroke:#000000;stroke-width:11"/><path d="m130 340h60" style="stroke:#000000;stroke-width:11"/><path d="m260 670v-60" style="stroke:#000000;stroke-width:10"/><path d="m360 670v-60" style="stroke:#000000;stroke-width:10"/><path d="m460 670v-60" style="stroke:#000000;stroke-width:10"/><path d="m660 670v-60" style="stroke:#000000;stroke-width:10"/><path d="m560 670v-60" style="stroke:#000000;stroke-width:10"/></g></svg>