<svg xmlns="http://www.w3.org/2000/svg" xml:space="preserve" viewBox="0 0 80 80"><path d="M7.65 38.25c6.39 0 7.29-3.51 7.29-6.66 0-2.52-.36-5.04-.72-7.56-.36-2.52-.72-4.95-.72-7.47 0-8.28 5.4-11.79 13.05-11.79h1.89v4.95h-1.62c-5.31 0-7.11 2.88-7.11 7.74 0 2.07.27 4.23.63 6.39.36 2.25.63 4.41.63 6.84.09 5.76-2.43 8.64-6.48 9.72v.18c4.05.99 6.57 4.05 6.48 9.81 0 2.43-.27 4.68-.63 6.84-.36 2.25-.63 4.32-.63 6.48 0 5.04 2.07 7.83 7.11 7.83h1.62v4.95h-1.89c-7.47 0-13.05-3.24-13.05-12.33 0-2.43.36-4.95.72-7.38.36-2.43.72-4.86.72-7.29 0-2.79-.9-6.66-7.29-6.66v-4.59zm24.48 39.23c1.98-5.31 4.41-14.94 5.4-21.51l8.82-.9c-2.07 7.65-6.03 17.64-8.55 21.87l-5.67.54zm40.22-34.64c-6.39 0-7.29 3.87-7.29 6.66 0 2.43.36 4.86.72 7.29.36 2.43.72 4.95.72 7.38 0 9.09-5.67 12.33-13.05 12.33h-1.89v-4.95h1.53c5.04-.09 7.2-2.79 7.2-7.83 0-2.16-.36-4.23-.63-6.48-.36-2.16-.72-4.41-.72-6.84 0-5.76 2.52-8.82 6.48-9.81v-.18c-3.96-1.08-6.48-3.96-6.48-9.72 0-2.43.36-4.59.72-6.84.27-2.16.63-4.32.63-6.39 0-4.86-1.89-7.65-7.11-7.74h-1.62V4.77h1.8c7.65 0 13.14 3.51 13.14 11.79 0 2.52-.36 4.95-.72 7.47-.36 2.52-.72 5.04-.72 7.56 0 3.15.9 6.66 7.29 6.66v4.59z"/></svg>