<svg xmlns="http://www.w3.org/2000/svg" xml:space="preserve" viewBox="0 0 80 80"><path d="M32.13 6.83h13.32c.66 0 1.05.06 1.17.18.18.12.33.45.45.99l.81 2.34 3.06 9.27c3.96 11.94 7.59 22.71 10.89 32.31.36.96.86 2.42 1.49 4.36.63 1.95 1.09 3.41 1.39 4.37.72 2.34 1.38 3.81 1.98 4.41.6.6 1.59.96 2.97 1.08 1.08.12 2.7.18 4.86.18v2.79l-6.93-.27-8.19.09h-5.13l-5.4.18-1.53-.18h-2.97l-5.04.18v-2.79c2.52 0 4.35-.18 5.49-.54 1.08-.48 1.74-1.08 1.98-1.8.06-.18-.09-.9-.45-2.16l-1.53-4.68-1.89-5.67c-.42-1.02-.69-1.56-.81-1.62-.12-.12-.36-.18-.72-.18h-18c-.78 0-1.26.06-1.44.18-.24.3-.45.81-.63 1.53-.66 1.92-1.08 3.15-1.26 3.69l-1.44 4.14c-.43 1.26-.63 2.14-.63 2.62.06 1.5.81 2.62 2.25 3.38 1.44.75 2.97 1.12 4.59 1.12v2.79l-8.28-.27-7.83.09-3.33.18v-2.79c4.32 0 7.32-1.32 9-3.96.42-.72 1.05-2.4 1.89-5.04.9-2.46 1.83-5.22 2.79-8.28 1.02-2.94 2.52-7.36 4.5-13.27 1.98-5.91 3.45-10.36 4.41-13.37l3.69-10.89.8-2.52.27-1.17c.01-.06-.21-.39-.62-1zm0 12.34-1.17 3.24-1.98 5.85-6.21 18.63H41.3l-.9-2.79-1.53-4.68-4.5-13.5-2.24-6.75zm12.59-9.55h-7.65c3 9.12 7.56 22.74 13.68 40.86.42 1.26 1.05 3.14 1.89 5.62.84 2.49 1.47 4.36 1.89 5.62l.99 3.06c.06.12.1.24.13.36l.09.36c.03.12.07.24.13.36s.12.21.18.27c.18.12.87.18 2.07.18h5.49l-1.62-4.86-2.97-9L50.21 26l-3.6-10.71-1.89-5.67z"/></svg>