<svg width="800" height="800" xmlns="http://www.w3.org/2000/svg" xmlns:xlink="http://www.w3.org/1999/xlink">
 <g>
  <title>Layer 1</title>
  <rect stroke-width="0" rx="100" id="svg_2" height="750" width="750" y="25" x="24" stroke="#000" fill="#ae3314"/>
  <g id="svg_53"/>
  <metadata id="svg_81" stroke="null">image/svg+xml</metadata>
  <ellipse ry="37" rx="42" id="svg_1" cy="151" cx="311" stroke="null" fill="#000000"/>
  <ellipse ry="37" rx="42" id="svg_3" cy="649" cx="495" stroke="null" fill="#000000"/>
  <path id="svg_77" d="m402.39872,730.978c168.92524,0 158.37642,-73.25615 158.37642,-73.25615l-0.18832,-75.89262l-161.2012,0l0,-22.78662l225.22972,0c0,0 108.0952,12.25894 108.0952,-158.18816c0.00006,-170.44704 -94.3479,-164.40263 -94.3479,-164.40263l-56.30743,0l0,79.09405c0,0 3.03516,94.3479 -92.84135,94.3479c-95.87645,0 -159.88297,0 -159.88297,0c0,0 -89.82824,-1.45208 -89.82824,86.81519c0,88.26715 0,145.94735 0,145.94735c0,0 -13.63841,88.32169 162.89608,88.32169l-0.00001,0zm88.88664,-51.03449c-16.03834,0 -29.00115,-12.96281 -29.00115,-29.00115c0,-16.03834 12.96281,-29.00115 29.00115,-29.00115c16.03834,0 29.00115,12.96281 29.00115,29.00115c0.00006,16.03834 -12.96281,29.00115 -29.00115,29.00115z" fill="url(#svg_78)" fill-rule="nonzero" marker-start="none" marker-mid="none" marker-end="none" stroke-miterlimit="4" stroke-dashoffset="0" stroke="null"/>
  <path d="m397.60125,69.02198c-168.92518,0 -158.37642,73.25615 -158.37642,73.25615l0.18832,75.89262l161.2012,0l0,22.78662l-225.22972,0c0,0 -108.0952,-12.259 -108.0952,158.1881c0,170.44704 94.3479,164.40263 94.3479,164.40263l56.30743,0l0,-79.09405c0,0 -3.0351,-94.3479 92.84135,-94.3479c95.87645,0 159.88297,0 159.88297,0c0,0 89.82824,1.45208 89.82824,-86.81513c0,-88.26721 0,-145.94735 0,-145.94735c0,0 13.63841,-88.32169 -162.89608,-88.32169l0.00001,0zm-88.88664,51.03449c16.03834,0 29.00115,12.96281 29.00115,29.00115c0,16.03834 -12.96281,29.00115 -29.00115,29.00115c-16.03834,0 -29.00115,-12.96281 -29.00115,-29.00115c0,-16.03834 12.96281,-29.00115 29.00115,-29.00115z" id="svg_79" fill="#f1998f" fill-rule="nonzero" marker-start="none" marker-mid="none" marker-end="none" stroke-miterlimit="4" stroke-dashoffset="0" stroke="null"/>
 </g>
 <defs>
  <linearGradient id="svg_86">
   <stop id="svg_88" offset="0" stop-color="#ffffff"/>
   <stop id="svg_87" offset="1" stop-color="#ffffff"/>
  </linearGradient>
  <linearGradient y2="0.88773" x2="0.90742" y1="0.20316" x1="0.19128" id="svg_78" xlink:href="#svg_86" xlink:href="#svg_86"/>
 </defs>
</svg>