<svg xmlns="http://www.w3.org/2000/svg" viewBox="0 0 67.86 63.449"><path fill="#231f20" d="M0 0h32.4q9.18.451 15.3 3.87a18.955 18.955 0 0 1 6.39 5.04 16.783 16.783 0 0 1 2.07 3.51 12.735 12.735 0 0 1 .63 2.79q.9 7.742-9.27 12.87a12.096 12.096 0 0 1-2.43 1.08 23.221 23.221 0 0 1-5.22 1.53v.18a20.417 20.417 0 0 1 4.95 1.8 14.152 14.152 0 0 1 6.3 6.12 19.367 19.367 0 0 1 1.53 6.12q.179 1.08.54 3.33.359 2.25.54 3.33 1.08 6.301 2.61 8.28a4.131 4.131 0 0 0 3.24 1.574A4.664 4.664 0 0 0 63 60.12a9.41 9.41 0 0 0 2.43-4.95 2.58 2.58 0 0 0 .09-.765 2.511 2.511 0 0 1 .09-.765 4.256 4.256 0 0 1 .09-.99 1.117 1.117 0 0 1 1.53-.54q.63.271.63 1.44a12.877 12.877 0 0 1-.63 3.69q-1.71 4.772-5.31 5.85a11.375 11.375 0 0 1-3.33.36 20.915 20.915 0 0 1-5.67-.99 13.652 13.652 0 0 1-4.05-2.07 11.446 11.446 0 0 1-1.98-1.89 11.017 11.017 0 0 1-2.43-5.58q-.18-1.168-.18-7.29 0-5.219-1.08-7.38-2.79-5.4-10.35-6.39a56.107 56.107 0 0 0-5.851-.18v23.04a3.837 3.837 0 0 0 .81 2.88 4.265 4.265 0 0 0 2.61.9q1.978.18 5.85.18v2.79H0v-2.79q4.05 0 6.12-.18a3.821 3.821 0 0 0 2.7-1.35 9.288 9.288 0 0 0 .45-3.69V8.099q0-3.058-.54-3.87a3.67 3.67 0 0 0-2.61-1.26Q4.05 2.79 0 2.789Zm24.21 2.79h-7.2v55.89h7.2ZM27 29.7q10.619 0 15.48-2.97 1.8-1.35 2.16-1.71 3.51-3.87 2.88-10.44a12.553 12.553 0 0 0-2.61-6.84 11.267 11.267 0 0 0-3.6-2.7 22.494 22.494 0 0 0-9.18-2.16 12.38 12.38 0 0 0-2.97 0 2.565 2.565 0 0 0-1.62.72A4.164 4.164 0 0 0 27 6.03V29.7Z"/></svg>