<svg width="800" height="800" xmlns="http://www.w3.org/2000/svg">
 <g>
  <title>Layer 1</title>
  <rect fill="#8650b2" stroke="#000" x="25" y="25" width="750" height="750" id="svg_2" rx="100" stroke-width="0"/>
  <rect stroke="#ffffff" id="svg_39" height="389" width="115" y="252" x="522" stroke-width="12" fill="#280c7d"/>
  <rect stroke="#ffffff" id="svg_38" height="276.00001" width="115" y="360.99999" x="405" stroke-width="12" fill="#9479d8"/>
  <path id="svg_37" d="m289,442l115,0l0,197l-115,0l0,-197z" opacity="undefined" stroke-width="12" stroke="#ffffff" fill="#321780"/>
  <line fill="none" stroke="#000000" x1="130" y1="540" x2="190" y2="540" id="svg_12" stroke-width="10"/>
  <line fill="none" stroke="#000000" x1="130" y1="440" x2="190" y2="440" id="svg_13" stroke-width="10"/>
  <line fill="none" stroke="#000" x1="130" y1="240" x2="190" y2="240" id="svg_15" stroke-width="11"/>
  <line fill="none" stroke="#000" x1="130" y1="340" x2="190" y2="340" id="svg_16" stroke-width="11"/>
  <rect id="svg_36" height="444" width="115" y="194" x="174" stroke-width="12" stroke="#ffffff" fill="#8e6fd7"/>
  <line fill="none" stroke="#000" x1="133" y1="140" x2="193" y2="140" id="svg_14" stroke-width="10"/>
  <line fill="none" stroke="#000" stroke-width="10" x1="260" y1="670" x2="260" y2="610" id="svg_17"/>
  <line fill="none" stroke="#000" stroke-width="10" x1="360" y1="670" x2="360" y2="610" id="svg_18"/>
  <line fill="none" stroke="#000" stroke-width="10" x1="460" y1="670" x2="460" y2="610" id="svg_19"/>
  <line fill="none" stroke="#000" stroke-width="10" x1="660" y1="670" x2="660" y2="610" id="svg_20"/>
  <line fill="none" stroke="#000" stroke-width="10" x1="560" y1="670" x2="560" y2="610" id="svg_21"/>
  <path id="svg_5" d="m356,366" opacity="undefined" stroke="#000" fill="none"/>
  <line fill="none" stroke="#000" x1="160" y1="120" x2="160" y2="680" id="svg_3" stroke-width="20"/>
  <line fill="none" stroke="#000" x1="105" y1="640" x2="680" y2="640" id="svg_4" stroke-width="20"/>
 </g>

</svg>