<svg width="800" height="800" xmlns="http://www.w3.org/2000/svg">
 <g>
  <title>Layer 1</title>
  <rect fill="#8650b2" stroke="#000" x="25" y="25" width="750" height="750" id="svg_2" rx="100" stroke-width="0"/>
  <line fill="none" stroke="#000" x1="105" y1="640" x2="680" y2="640" id="svg_4" stroke-width="20"/>
  <line fill="none" stroke="#000000" x1="130" y1="540" x2="190" y2="540" id="svg_12" stroke-width="10"/>
  <line fill="none" stroke="#000000" x1="130" y1="440" x2="190" y2="440" id="svg_13" stroke-width="10"/>
  <line fill="none" stroke="#000" x1="133" y1="140" x2="193" y2="140" id="svg_14" stroke-width="10"/>
  <line fill="none" stroke="#000" x1="130" y1="240" x2="190" y2="240" id="svg_15" stroke-width="11"/>
  <line fill="none" stroke="#000" x1="130" y1="340" x2="190" y2="340" id="svg_16" stroke-width="11"/>
  <line fill="none" stroke="#000" stroke-width="10" x1="260" y1="670" x2="260" y2="610" id="svg_17"/>
  <line fill="none" stroke="#000" stroke-width="10" x1="360" y1="670" x2="360" y2="610" id="svg_18"/>
  <line fill="none" stroke="#000" stroke-width="10" x1="460" y1="670" x2="460" y2="610" id="svg_19"/>
  <line fill="none" stroke="#000" stroke-width="10" x1="660" y1="670" x2="660" y2="610" id="svg_20"/>
  <line fill="none" stroke="#000" stroke-width="10" x1="560" y1="670" x2="560" y2="610" id="svg_21"/>
  <path id="svg_5" d="m356,366" opacity="undefined" stroke="#000" fill="none"/>
  <path id="svg_7" d="m157,264c0,0 139,111 139,111c0,0 86,-121 86,-121c0,0 94,69 94,69c0,0 93,-179 93,-179c0,0 109,94 109,94" opacity="NaN" stroke-width="16" stroke="#ffffff" fill="none"/>
  <ellipse ry="24.5" rx="25" id="svg_8" cy="375.5" cx="294.5" stroke-width="0" fill="#ffffff"/>
  <ellipse ry="24.5" rx="25" id="svg_9" cy="260.5" cx="380.5" stroke-width="0" fill="#ffffff"/>
  <ellipse ry="24.5" rx="25" id="svg_10" cy="320.5" cx="473.5" stroke-width="0" fill="#ffffff"/>
  <ellipse ry="24.5" rx="25" id="svg_11" cy="140.5" cx="569.5" stroke-width="0" fill="#ffffff"/>
  <ellipse ry="24.5" rx="25" id="svg_22" cy="238.5" cx="675.5" stroke-width="0" fill="#ffffff"/>
  <path id="svg_23" d="m160,510l115,61l104,-142l103,115l91,-229l100,122" opacity="NaN" stroke-width="20" stroke="#af86fc" fill="none"/>
  <ellipse ry="24.5" rx="25" id="svg_30" cy="567.5" cx="273.5" stroke-width="0" fill="#af86fc"/>
  <ellipse ry="24.5" rx="25" id="svg_31" cy="434.5" cx="374.5" stroke-width="0" fill="#af86fc"/>
  <ellipse ry="24.5" rx="25" id="svg_32" cy="536.5" cx="480.5" stroke-width="0" fill="#af86fc"/>
  <ellipse ry="24.5" rx="25" id="svg_33" cy="318.5" cx="571.5" stroke-width="0" fill="#af86fc"/>
  <ellipse ry="24.5" rx="25" id="svg_34" cy="436.5" cx="674.5" stroke-width="0" fill="#af86fc"/>
  <line fill="none" stroke="#000" x1="160" y1="120" x2="160" y2="680" id="svg_3" stroke-width="20"/>
 </g>

</svg>