<svg xmlns="http://www.w3.org/2000/svg" viewBox="0 0 800 800"><rect width="750" height="750" x="25" y="25" fill="#7f0000" rx="100"/><rect width="580" height="330" x="110" y="235" fill="#fff" rx="40" ry="40"/><rect width="540" height="290" x="130" y="255" fill="#bf0000" rx="20" ry="20"/><rect width="110" height="200" x="352" y="300" fill="#fff" rx="55" ry="55"/><rect width="50" height="140" x="382" y="330" fill="#bf0000" rx="25" ry="25"/><path fill="#fff" d="M256 300h30v130h16v30h-16v40h-30v-40h-74v-30l74-130z"/><path fill="#bf0000" d="M216.52 430 256 360.643V430h-39.48z"/><path fill="#fff" d="M572 300h30v130h16v30h-16v40h-30v-40h-74v-30l74-130z"/><path fill="#bf0000" d="M532.52 430 572 360.643V430h-39.48z"/></svg>