<?xml version="1.0" encoding="utf-8"?>
<!-- Generator: Adobe Illustrator 26.0.3, SVG Export Plug-In . SVG Version: 6.00 Build 0)  -->
<svg version="1.1" id="Background" xmlns="http://www.w3.org/2000/svg" xmlns:xlink="http://www.w3.org/1999/xlink" x="0px" y="0px"
	 viewBox="0 0 800 800" style="enable-background:new 0 0 800 800;" xml:space="preserve">
<style type="text/css">
	.st0{fill:#FFD400;}
	.st1{fill:none;}
</style>
<path id="svg_2" class="st0" d="M124,25h550c55.23,0,100,44.77,100,100v550c0,55.23-44.77,100-100,100H124
	c-55.23,0-100-44.77-100-100V125C24,69.77,68.77,25,124,25z"/>
<g>
	<rect x="56" y="143" class="st1" width="688" height="597"/>
	<path d="M174.5,332.89c-39.42,0-59.12-19.83-59.12-59.5v-120.5h33v120.5c0,9.25,2.14,16.21,6.44,20.88c4.29,4.67,11.02,7,20.19,7
		c17.75,0,26.62-9.29,26.62-27.88v-120.5h33v120.5c0,19.83-5.11,34.71-15.31,44.62C209.1,327.93,194.17,332.89,174.5,332.89z"/>
	<path d="M318.88,332.89c-10.08,0-19.88-0.86-29.38-2.56s-18-4.1-25.5-7.19l4.5-33.75c9.17,3.83,18.27,6.79,27.31,8.88
		c9.04,2.08,17.39,3.12,25.06,3.12c8.92,0,15.75-1.58,20.5-4.75c4.75-3.17,7.12-7.71,7.12-13.62c0-7.75-4.88-13.92-14.62-18.5
		l-25.5-12.38c-12.58-6.17-22.33-13.79-29.25-22.88c-6.92-9.08-10.38-19.12-10.38-30.12c0-15.5,5.12-27.5,15.38-36
		s24.75-12.75,43.5-12.75c10.92,0,21.27,1.92,31.06,5.75c9.79,3.83,18.48,9.38,26.06,16.62L362,198.89
		c-5.75-5.5-11.54-9.73-17.38-12.69c-5.83-2.96-11.46-4.44-16.88-4.44c-7.33,0-13.04,1.56-17.12,4.69
		c-4.08,3.12-6.12,7.65-6.12,13.56c0,3.92,1.44,7.62,4.31,11.12s6.98,6.67,12.31,9.5l24,12.38c12.5,6.5,22.14,14.08,28.94,22.75
		c6.79,8.67,10.19,17.96,10.19,27.88c0,15.75-5.67,27.9-17,36.44C355.92,328.62,339.79,332.89,318.88,332.89z"/>
	<path d="M417.88,330.39v-177.5h33v177.5H417.88z M417.88,183.27v-30.38h121.75v30.38H417.88z M417.88,256.77v-30.5h99.25v30.5
		H417.88z M417.88,330.39v-30.38h121.75v30.38H417.88z"/>
	<path d="M565.38,330.39v-177.5h33v177.5H565.38z M596.62,265.39v-30.38h31.88c7.67,0,13.62-2.27,17.88-6.81
		c4.25-4.54,6.38-10.89,6.38-19.06c0-8.25-2.12-14.62-6.38-19.12s-10.21-6.75-17.88-6.75h-31.38l-3-30.38h34.38
		c19.08,0,33.83,4.67,44.25,14c10.42,9.33,15.62,22.58,15.62,39.75c0,18.58-5.21,33.02-15.62,43.31
		c-10.42,10.29-25.17,15.44-44.25,15.44H596.62z M655.5,330.39l-33.5-83.5h34.75l38.12,83.5H655.5z"/>
	<path d="M117.88,637.59v-177.5h33v177.5H117.88z M147.88,586.72v-30.38h24.38c10.92,0,19.35-3,25.31-9
		c5.96-6,8.94-14.38,8.94-25.12c0-10.17-2.98-18-8.94-23.5c-5.96-5.5-14.4-8.25-25.31-8.25h-23.88v-30.38h23.88
		c22.25,0,39.46,5.23,51.62,15.69c12.17,10.46,18.25,25.23,18.25,44.31c0,21.17-6.08,37.56-18.25,49.19
		c-12.17,11.62-29.38,17.44-51.62,17.44H147.88z"/>
	<path d="M265.38,637.59v-177.5h33v177.5H265.38z M296.62,572.59v-30.38h31.88c7.67,0,13.62-2.27,17.88-6.81
		c4.25-4.54,6.38-10.89,6.38-19.06c0-8.25-2.12-14.62-6.38-19.12s-10.21-6.75-17.88-6.75h-31.38l-3-30.38h34.38
		c19.08,0,33.83,4.67,44.25,14c10.42,9.33,15.62,22.58,15.62,39.75c0,18.58-5.21,33.02-15.62,43.31
		c-10.42,10.29-25.17,15.44-44.25,15.44H296.62z M355.5,637.59l-33.5-83.5h34.75l38.12,83.5H355.5z"/>
	<path d="M487.75,640.09c-27.17,0-47.56-7.62-61.19-22.88s-20.44-38.12-20.44-68.62c0-28.92,7.04-51.31,21.12-67.19
		c14.08-15.88,33.92-23.81,59.5-23.81c12.92,0,24.06,2.02,33.44,6.06c9.38,4.04,16.69,9.77,21.94,17.19l-20.75,23.88
		c-3.83-4.92-8.65-8.77-14.44-11.56c-5.79-2.79-12.02-4.19-18.69-4.19c-15,0-26.65,5.08-34.94,15.25
		c-8.29,10.17-12.44,24.54-12.44,43.12c0,20.42,4.17,35.73,12.5,45.94c8.33,10.21,20.79,15.31,37.38,15.31
		c7.92,0,14.89-0.77,20.94-2.31c6.04-1.54,10.98-2.85,14.81-3.94l11.88,30.25c-3.67,1.08-10.08,2.61-19.25,4.56
		C509.96,639.11,499.5,640.09,487.75,640.09z M476.25,576.09v-30.38h61.38v30.38H476.25z M505.62,632.59v-86.88h32.75v86.88H505.62z
		"/>
	<path d="M563.88,637.59v-177.5h30.75v177.5H563.88z M613.5,575.47l-15-83.88h-7.88l2-31.5H611l13,79.38h1l3.5,36H613.5z
		 M620.75,575.47l3.75-36h1.5l13-79.38h18.38l2,31.5h-7.88l-15,83.88H620.75z M655.38,637.59v-177.5h30.75v177.5H655.38z"/>
</g>
</svg>
